<mxfile host="app.diagrams.net" modified="2021-07-17T01:22:36.391Z" agent="5.0 (Windows)" etag="jERnXl99yBuGjGyxHzA9" version="14.8.5" type="github">
  <diagram id="KxuiyelQ4g_LW83yEsCo" name="Page-1">
    <mxGraphModel dx="813" dy="436" grid="1" gridSize="10" guides="1" tooltips="1" connect="1" arrows="1" fold="1" page="1" pageScale="1" pageWidth="4681" pageHeight="3300" math="0" shadow="0">
      <root>
        <mxCell id="0" />
        <mxCell id="1" parent="0" />
        <mxCell id="sUNE9Ao9WOD159sY9nD--51" style="edgeStyle=orthogonalEdgeStyle;curved=1;rounded=0;orthogonalLoop=1;jettySize=auto;html=1;entryX=0;entryY=0;entryDx=0;entryDy=0;exitX=1;exitY=0.5;exitDx=0;exitDy=0;" parent="1" source="44AiBCDxBOzTBdy34bFM-123" target="sUNE9Ao9WOD159sY9nD--24" edge="1">
          <mxGeometry relative="1" as="geometry">
            <Array as="points">
              <mxPoint x="270" y="215" />
              <mxPoint x="270" y="284" />
            </Array>
            <mxPoint x="240" y="160" as="sourcePoint" />
          </mxGeometry>
        </mxCell>
        <mxCell id="44AiBCDxBOzTBdy34bFM-65" value="&lt;div&gt;Promoter in String&lt;/div&gt;" style="text;html=1;strokeColor=none;fillColor=none;align=center;verticalAlign=middle;whiteSpace=wrap;rounded=0;" parent="1" vertex="1">
          <mxGeometry x="80" y="243.5" width="160" height="20" as="geometry" />
        </mxCell>
        <mxCell id="44AiBCDxBOzTBdy34bFM-104" value="" style="rounded=0;whiteSpace=wrap;html=1;fillColor=#f8cecc;strokeColor=#b85450;" parent="1" vertex="1">
          <mxGeometry x="160" y="194.5" width="40" height="40" as="geometry" />
        </mxCell>
        <mxCell id="44AiBCDxBOzTBdy34bFM-109" value="G" style="text;html=1;strokeColor=none;fillColor=none;align=center;verticalAlign=middle;whiteSpace=wrap;rounded=0;" parent="1" vertex="1">
          <mxGeometry x="160" y="204.5" width="40" height="20" as="geometry" />
        </mxCell>
        <mxCell id="44AiBCDxBOzTBdy34bFM-123" value="" style="rounded=0;whiteSpace=wrap;html=1;fillColor=#d5e8d4;strokeColor=#82b366;" parent="1" vertex="1">
          <mxGeometry x="200" y="194.5" width="40" height="40" as="geometry" />
        </mxCell>
        <mxCell id="sUNE9Ao9WOD159sY9nD--52" style="edgeStyle=orthogonalEdgeStyle;curved=1;rounded=0;orthogonalLoop=1;jettySize=auto;html=1;entryX=0;entryY=0;entryDx=0;entryDy=0;exitX=1;exitY=0.5;exitDx=0;exitDy=0;" parent="1" source="sIM_7fNKrBLGrNyowHgk-19" target="sUNE9Ao9WOD159sY9nD--24" edge="1">
          <mxGeometry relative="1" as="geometry">
            <Array as="points">
              <mxPoint x="285" y="349" />
              <mxPoint x="285" y="284" />
            </Array>
            <mxPoint x="240" y="400" as="sourcePoint" />
          </mxGeometry>
        </mxCell>
        <mxCell id="44AiBCDxBOzTBdy34bFM-128" value="T" style="text;html=1;strokeColor=none;fillColor=none;align=center;verticalAlign=middle;whiteSpace=wrap;rounded=0;" parent="1" vertex="1">
          <mxGeometry x="200" y="204.5" width="40" height="20" as="geometry" />
        </mxCell>
        <mxCell id="44AiBCDxBOzTBdy34bFM-129" value="&lt;div&gt;Enhancer in String&lt;/div&gt;" style="text;html=1;strokeColor=none;fillColor=none;align=center;verticalAlign=middle;whiteSpace=wrap;rounded=0;" parent="1" vertex="1">
          <mxGeometry x="80" y="380" width="160" height="20" as="geometry" />
        </mxCell>
        <mxCell id="44AiBCDxBOzTBdy34bFM-130" value="" style="rounded=0;whiteSpace=wrap;html=1;fillColor=#dae8fc;strokeColor=#6c8ebf;" parent="1" vertex="1">
          <mxGeometry x="495" y="189" width="40" height="40" as="geometry" />
        </mxCell>
        <mxCell id="44AiBCDxBOzTBdy34bFM-131" value="" style="rounded=0;whiteSpace=wrap;html=1;fillColor=#dae8fc;strokeColor=#6c8ebf;" parent="1" vertex="1">
          <mxGeometry x="535" y="189" width="40" height="40" as="geometry" />
        </mxCell>
        <mxCell id="44AiBCDxBOzTBdy34bFM-132" value="" style="rounded=0;whiteSpace=wrap;html=1;fillColor=#dae8fc;strokeColor=#6c8ebf;" parent="1" vertex="1">
          <mxGeometry x="575" y="189" width="40" height="40" as="geometry" />
        </mxCell>
        <mxCell id="44AiBCDxBOzTBdy34bFM-133" value="" style="rounded=0;whiteSpace=wrap;html=1;fillColor=#dae8fc;strokeColor=#6c8ebf;" parent="1" vertex="1">
          <mxGeometry x="615" y="189" width="40" height="40" as="geometry" />
        </mxCell>
        <mxCell id="44AiBCDxBOzTBdy34bFM-160" value="" style="rounded=0;whiteSpace=wrap;html=1;fillColor=#dae8fc;strokeColor=#6c8ebf;" parent="1" vertex="1">
          <mxGeometry x="495" y="229" width="40" height="40" as="geometry" />
        </mxCell>
        <mxCell id="44AiBCDxBOzTBdy34bFM-161" value="" style="rounded=0;whiteSpace=wrap;html=1;fillColor=#dae8fc;strokeColor=#6c8ebf;" parent="1" vertex="1">
          <mxGeometry x="535" y="229" width="40" height="40" as="geometry" />
        </mxCell>
        <mxCell id="44AiBCDxBOzTBdy34bFM-162" value="" style="rounded=0;whiteSpace=wrap;html=1;fillColor=#dae8fc;strokeColor=#6c8ebf;" parent="1" vertex="1">
          <mxGeometry x="575" y="229" width="40" height="40" as="geometry" />
        </mxCell>
        <mxCell id="44AiBCDxBOzTBdy34bFM-163" value="" style="rounded=0;whiteSpace=wrap;html=1;fillColor=#dae8fc;strokeColor=#6c8ebf;" parent="1" vertex="1">
          <mxGeometry x="615" y="229" width="40" height="40" as="geometry" />
        </mxCell>
        <mxCell id="44AiBCDxBOzTBdy34bFM-164" value="" style="rounded=0;whiteSpace=wrap;html=1;fillColor=#dae8fc;strokeColor=#6c8ebf;" parent="1" vertex="1">
          <mxGeometry x="655" y="229" width="40" height="40" as="geometry" />
        </mxCell>
        <mxCell id="44AiBCDxBOzTBdy34bFM-166" value="" style="rounded=0;whiteSpace=wrap;html=1;fillColor=#dae8fc;strokeColor=#6c8ebf;" parent="1" vertex="1">
          <mxGeometry x="495" y="269" width="40" height="40" as="geometry" />
        </mxCell>
        <mxCell id="44AiBCDxBOzTBdy34bFM-167" value="" style="rounded=0;whiteSpace=wrap;html=1;fillColor=#dae8fc;strokeColor=#6c8ebf;" parent="1" vertex="1">
          <mxGeometry x="535" y="269" width="40" height="40" as="geometry" />
        </mxCell>
        <mxCell id="44AiBCDxBOzTBdy34bFM-168" value="" style="rounded=0;whiteSpace=wrap;html=1;fillColor=#dae8fc;strokeColor=#6c8ebf;" parent="1" vertex="1">
          <mxGeometry x="575" y="269" width="40" height="40" as="geometry" />
        </mxCell>
        <mxCell id="44AiBCDxBOzTBdy34bFM-169" value="" style="rounded=0;whiteSpace=wrap;html=1;fillColor=#dae8fc;strokeColor=#6c8ebf;" parent="1" vertex="1">
          <mxGeometry x="615" y="269" width="40" height="40" as="geometry" />
        </mxCell>
        <mxCell id="44AiBCDxBOzTBdy34bFM-170" value="" style="rounded=0;whiteSpace=wrap;html=1;fillColor=#dae8fc;strokeColor=#6c8ebf;" parent="1" vertex="1">
          <mxGeometry x="655" y="269" width="40" height="40" as="geometry" />
        </mxCell>
        <mxCell id="44AiBCDxBOzTBdy34bFM-172" value="" style="rounded=0;whiteSpace=wrap;html=1;fillColor=#dae8fc;strokeColor=#6c8ebf;" parent="1" vertex="1">
          <mxGeometry x="495" y="309" width="40" height="40" as="geometry" />
        </mxCell>
        <mxCell id="44AiBCDxBOzTBdy34bFM-173" value="" style="rounded=0;whiteSpace=wrap;html=1;fillColor=#dae8fc;strokeColor=#6c8ebf;" parent="1" vertex="1">
          <mxGeometry x="535" y="309" width="40" height="40" as="geometry" />
        </mxCell>
        <mxCell id="44AiBCDxBOzTBdy34bFM-174" value="" style="rounded=0;whiteSpace=wrap;html=1;fillColor=#dae8fc;strokeColor=#6c8ebf;" parent="1" vertex="1">
          <mxGeometry x="575" y="309" width="40" height="40" as="geometry" />
        </mxCell>
        <mxCell id="44AiBCDxBOzTBdy34bFM-175" value="" style="rounded=0;whiteSpace=wrap;html=1;fillColor=#dae8fc;strokeColor=#6c8ebf;" parent="1" vertex="1">
          <mxGeometry x="615" y="309" width="40" height="40" as="geometry" />
        </mxCell>
        <mxCell id="44AiBCDxBOzTBdy34bFM-176" value="" style="rounded=0;whiteSpace=wrap;html=1;fillColor=#dae8fc;strokeColor=#6c8ebf;" parent="1" vertex="1">
          <mxGeometry x="655" y="309" width="40" height="40" as="geometry" />
        </mxCell>
        <mxCell id="44AiBCDxBOzTBdy34bFM-538" value="" style="rounded=0;whiteSpace=wrap;html=1;fillColor=#d5e8d4;strokeColor=#82b366;" parent="1" vertex="1">
          <mxGeometry x="505" y="199" width="40" height="40" as="geometry" />
        </mxCell>
        <mxCell id="44AiBCDxBOzTBdy34bFM-539" value="" style="rounded=0;whiteSpace=wrap;html=1;fillColor=#d5e8d4;strokeColor=#82b366;" parent="1" vertex="1">
          <mxGeometry x="545" y="199" width="40" height="40" as="geometry" />
        </mxCell>
        <mxCell id="44AiBCDxBOzTBdy34bFM-540" value="" style="rounded=0;whiteSpace=wrap;html=1;fillColor=#d5e8d4;strokeColor=#82b366;" parent="1" vertex="1">
          <mxGeometry x="585" y="199" width="40" height="40" as="geometry" />
        </mxCell>
        <mxCell id="44AiBCDxBOzTBdy34bFM-541" value="" style="rounded=0;whiteSpace=wrap;html=1;fillColor=#d5e8d4;strokeColor=#82b366;" parent="1" vertex="1">
          <mxGeometry x="625" y="199" width="40" height="40" as="geometry" />
        </mxCell>
        <mxCell id="44AiBCDxBOzTBdy34bFM-544" value="" style="rounded=0;whiteSpace=wrap;html=1;fillColor=#d5e8d4;strokeColor=#82b366;" parent="1" vertex="1">
          <mxGeometry x="505" y="239" width="40" height="40" as="geometry" />
        </mxCell>
        <mxCell id="44AiBCDxBOzTBdy34bFM-545" value="" style="rounded=0;whiteSpace=wrap;html=1;fillColor=#d5e8d4;strokeColor=#82b366;" parent="1" vertex="1">
          <mxGeometry x="545" y="239" width="40" height="40" as="geometry" />
        </mxCell>
        <mxCell id="44AiBCDxBOzTBdy34bFM-546" value="" style="rounded=0;whiteSpace=wrap;html=1;fillColor=#d5e8d4;strokeColor=#82b366;" parent="1" vertex="1">
          <mxGeometry x="585" y="239" width="40" height="40" as="geometry" />
        </mxCell>
        <mxCell id="44AiBCDxBOzTBdy34bFM-547" value="" style="rounded=0;whiteSpace=wrap;html=1;fillColor=#d5e8d4;strokeColor=#82b366;" parent="1" vertex="1">
          <mxGeometry x="625" y="239" width="40" height="40" as="geometry" />
        </mxCell>
        <mxCell id="44AiBCDxBOzTBdy34bFM-548" value="" style="rounded=0;whiteSpace=wrap;html=1;fillColor=#d5e8d4;strokeColor=#82b366;" parent="1" vertex="1">
          <mxGeometry x="665" y="239" width="40" height="40" as="geometry" />
        </mxCell>
        <mxCell id="44AiBCDxBOzTBdy34bFM-550" value="" style="rounded=0;whiteSpace=wrap;html=1;fillColor=#d5e8d4;strokeColor=#82b366;" parent="1" vertex="1">
          <mxGeometry x="505" y="279" width="40" height="40" as="geometry" />
        </mxCell>
        <mxCell id="44AiBCDxBOzTBdy34bFM-551" value="" style="rounded=0;whiteSpace=wrap;html=1;fillColor=#d5e8d4;strokeColor=#82b366;" parent="1" vertex="1">
          <mxGeometry x="545" y="279" width="40" height="40" as="geometry" />
        </mxCell>
        <mxCell id="44AiBCDxBOzTBdy34bFM-552" value="" style="rounded=0;whiteSpace=wrap;html=1;fillColor=#d5e8d4;strokeColor=#82b366;" parent="1" vertex="1">
          <mxGeometry x="585" y="279" width="40" height="40" as="geometry" />
        </mxCell>
        <mxCell id="44AiBCDxBOzTBdy34bFM-553" value="" style="rounded=0;whiteSpace=wrap;html=1;fillColor=#d5e8d4;strokeColor=#82b366;" parent="1" vertex="1">
          <mxGeometry x="625" y="279" width="40" height="40" as="geometry" />
        </mxCell>
        <mxCell id="44AiBCDxBOzTBdy34bFM-554" value="" style="rounded=0;whiteSpace=wrap;html=1;fillColor=#d5e8d4;strokeColor=#82b366;" parent="1" vertex="1">
          <mxGeometry x="665" y="279" width="40" height="40" as="geometry" />
        </mxCell>
        <mxCell id="44AiBCDxBOzTBdy34bFM-556" value="" style="rounded=0;whiteSpace=wrap;html=1;fillColor=#d5e8d4;strokeColor=#82b366;" parent="1" vertex="1">
          <mxGeometry x="505" y="319" width="40" height="40" as="geometry" />
        </mxCell>
        <mxCell id="44AiBCDxBOzTBdy34bFM-557" value="" style="rounded=0;whiteSpace=wrap;html=1;fillColor=#d5e8d4;strokeColor=#82b366;" parent="1" vertex="1">
          <mxGeometry x="545" y="319" width="40" height="40" as="geometry" />
        </mxCell>
        <mxCell id="44AiBCDxBOzTBdy34bFM-558" value="" style="rounded=0;whiteSpace=wrap;html=1;fillColor=#d5e8d4;strokeColor=#82b366;" parent="1" vertex="1">
          <mxGeometry x="585" y="319" width="40" height="40" as="geometry" />
        </mxCell>
        <mxCell id="44AiBCDxBOzTBdy34bFM-559" value="" style="rounded=0;whiteSpace=wrap;html=1;fillColor=#d5e8d4;strokeColor=#82b366;" parent="1" vertex="1">
          <mxGeometry x="625" y="319" width="40" height="40" as="geometry" />
        </mxCell>
        <mxCell id="44AiBCDxBOzTBdy34bFM-560" value="" style="rounded=0;whiteSpace=wrap;html=1;fillColor=#d5e8d4;strokeColor=#82b366;" parent="1" vertex="1">
          <mxGeometry x="665" y="319" width="40" height="40" as="geometry" />
        </mxCell>
        <mxCell id="44AiBCDxBOzTBdy34bFM-586" value="" style="rounded=0;whiteSpace=wrap;html=1;fillColor=#ffe6cc;strokeColor=#d79b00;" parent="1" vertex="1">
          <mxGeometry x="515" y="209" width="40" height="40" as="geometry" />
        </mxCell>
        <mxCell id="44AiBCDxBOzTBdy34bFM-587" value="" style="rounded=0;whiteSpace=wrap;html=1;fillColor=#ffe6cc;strokeColor=#d79b00;" parent="1" vertex="1">
          <mxGeometry x="555" y="209" width="40" height="40" as="geometry" />
        </mxCell>
        <mxCell id="44AiBCDxBOzTBdy34bFM-588" value="" style="rounded=0;whiteSpace=wrap;html=1;fillColor=#ffe6cc;strokeColor=#d79b00;" parent="1" vertex="1">
          <mxGeometry x="595" y="209" width="40" height="40" as="geometry" />
        </mxCell>
        <mxCell id="44AiBCDxBOzTBdy34bFM-589" value="" style="rounded=0;whiteSpace=wrap;html=1;fillColor=#ffe6cc;strokeColor=#d79b00;" parent="1" vertex="1">
          <mxGeometry x="635" y="209" width="40" height="40" as="geometry" />
        </mxCell>
        <mxCell id="44AiBCDxBOzTBdy34bFM-592" value="" style="rounded=0;whiteSpace=wrap;html=1;fillColor=#ffe6cc;strokeColor=#d79b00;" parent="1" vertex="1">
          <mxGeometry x="515" y="249" width="40" height="40" as="geometry" />
        </mxCell>
        <mxCell id="44AiBCDxBOzTBdy34bFM-593" value="" style="rounded=0;whiteSpace=wrap;html=1;fillColor=#ffe6cc;strokeColor=#d79b00;" parent="1" vertex="1">
          <mxGeometry x="555" y="249" width="40" height="40" as="geometry" />
        </mxCell>
        <mxCell id="44AiBCDxBOzTBdy34bFM-594" value="" style="rounded=0;whiteSpace=wrap;html=1;fillColor=#ffe6cc;strokeColor=#d79b00;" parent="1" vertex="1">
          <mxGeometry x="595" y="249" width="40" height="40" as="geometry" />
        </mxCell>
        <mxCell id="44AiBCDxBOzTBdy34bFM-595" value="" style="rounded=0;whiteSpace=wrap;html=1;fillColor=#ffe6cc;strokeColor=#d79b00;" parent="1" vertex="1">
          <mxGeometry x="635" y="249" width="40" height="40" as="geometry" />
        </mxCell>
        <mxCell id="44AiBCDxBOzTBdy34bFM-598" value="" style="rounded=0;whiteSpace=wrap;html=1;fillColor=#ffe6cc;strokeColor=#d79b00;" parent="1" vertex="1">
          <mxGeometry x="515" y="289" width="40" height="40" as="geometry" />
        </mxCell>
        <mxCell id="44AiBCDxBOzTBdy34bFM-599" value="" style="rounded=0;whiteSpace=wrap;html=1;fillColor=#ffe6cc;strokeColor=#d79b00;" parent="1" vertex="1">
          <mxGeometry x="555" y="289" width="40" height="40" as="geometry" />
        </mxCell>
        <mxCell id="44AiBCDxBOzTBdy34bFM-600" value="" style="rounded=0;whiteSpace=wrap;html=1;fillColor=#ffe6cc;strokeColor=#d79b00;" parent="1" vertex="1">
          <mxGeometry x="595" y="289" width="40" height="40" as="geometry" />
        </mxCell>
        <mxCell id="44AiBCDxBOzTBdy34bFM-601" value="" style="rounded=0;whiteSpace=wrap;html=1;fillColor=#ffe6cc;strokeColor=#d79b00;" parent="1" vertex="1">
          <mxGeometry x="635" y="289" width="40" height="40" as="geometry" />
        </mxCell>
        <mxCell id="44AiBCDxBOzTBdy34bFM-604" value="" style="rounded=0;whiteSpace=wrap;html=1;fillColor=#ffe6cc;strokeColor=#d79b00;" parent="1" vertex="1">
          <mxGeometry x="515" y="329" width="40" height="40" as="geometry" />
        </mxCell>
        <mxCell id="44AiBCDxBOzTBdy34bFM-605" value="" style="rounded=0;whiteSpace=wrap;html=1;fillColor=#ffe6cc;strokeColor=#d79b00;" parent="1" vertex="1">
          <mxGeometry x="555" y="329" width="40" height="40" as="geometry" />
        </mxCell>
        <mxCell id="44AiBCDxBOzTBdy34bFM-606" value="" style="rounded=0;whiteSpace=wrap;html=1;fillColor=#ffe6cc;strokeColor=#d79b00;" parent="1" vertex="1">
          <mxGeometry x="595" y="329" width="40" height="40" as="geometry" />
        </mxCell>
        <mxCell id="44AiBCDxBOzTBdy34bFM-607" value="" style="rounded=0;whiteSpace=wrap;html=1;fillColor=#ffe6cc;strokeColor=#d79b00;" parent="1" vertex="1">
          <mxGeometry x="635" y="329" width="40" height="40" as="geometry" />
        </mxCell>
        <mxCell id="44AiBCDxBOzTBdy34bFM-634" value="" style="rounded=0;whiteSpace=wrap;html=1;fillColor=#fff2cc;strokeColor=#d6b656;" parent="1" vertex="1">
          <mxGeometry x="525" y="219" width="40" height="40" as="geometry" />
        </mxCell>
        <mxCell id="44AiBCDxBOzTBdy34bFM-635" value="" style="rounded=0;whiteSpace=wrap;html=1;fillColor=#fff2cc;strokeColor=#d6b656;" parent="1" vertex="1">
          <mxGeometry x="565" y="219" width="40" height="40" as="geometry" />
        </mxCell>
        <mxCell id="44AiBCDxBOzTBdy34bFM-636" value="" style="rounded=0;whiteSpace=wrap;html=1;fillColor=#fff2cc;strokeColor=#d6b656;" parent="1" vertex="1">
          <mxGeometry x="605" y="219" width="40" height="40" as="geometry" />
        </mxCell>
        <mxCell id="44AiBCDxBOzTBdy34bFM-637" value="" style="rounded=0;whiteSpace=wrap;html=1;fillColor=#fff2cc;strokeColor=#d6b656;" parent="1" vertex="1">
          <mxGeometry x="645" y="219" width="40" height="40" as="geometry" />
        </mxCell>
        <mxCell id="44AiBCDxBOzTBdy34bFM-640" value="" style="rounded=0;whiteSpace=wrap;html=1;fillColor=#fff2cc;strokeColor=#d6b656;" parent="1" vertex="1">
          <mxGeometry x="525" y="259" width="40" height="40" as="geometry" />
        </mxCell>
        <mxCell id="44AiBCDxBOzTBdy34bFM-641" value="" style="rounded=0;whiteSpace=wrap;html=1;fillColor=#fff2cc;strokeColor=#d6b656;" parent="1" vertex="1">
          <mxGeometry x="565" y="259" width="40" height="40" as="geometry" />
        </mxCell>
        <mxCell id="44AiBCDxBOzTBdy34bFM-642" value="" style="rounded=0;whiteSpace=wrap;html=1;fillColor=#fff2cc;strokeColor=#d6b656;" parent="1" vertex="1">
          <mxGeometry x="605" y="259" width="40" height="40" as="geometry" />
        </mxCell>
        <mxCell id="44AiBCDxBOzTBdy34bFM-643" value="" style="rounded=0;whiteSpace=wrap;html=1;fillColor=#fff2cc;strokeColor=#d6b656;" parent="1" vertex="1">
          <mxGeometry x="645" y="259" width="40" height="40" as="geometry" />
        </mxCell>
        <mxCell id="44AiBCDxBOzTBdy34bFM-646" value="" style="rounded=0;whiteSpace=wrap;html=1;fillColor=#fff2cc;strokeColor=#d6b656;" parent="1" vertex="1">
          <mxGeometry x="525" y="299" width="40" height="40" as="geometry" />
        </mxCell>
        <mxCell id="44AiBCDxBOzTBdy34bFM-647" value="" style="rounded=0;whiteSpace=wrap;html=1;fillColor=#fff2cc;strokeColor=#d6b656;" parent="1" vertex="1">
          <mxGeometry x="565" y="299" width="40" height="40" as="geometry" />
        </mxCell>
        <mxCell id="44AiBCDxBOzTBdy34bFM-648" value="" style="rounded=0;whiteSpace=wrap;html=1;fillColor=#fff2cc;strokeColor=#d6b656;" parent="1" vertex="1">
          <mxGeometry x="605" y="299" width="40" height="40" as="geometry" />
        </mxCell>
        <mxCell id="44AiBCDxBOzTBdy34bFM-649" value="" style="rounded=0;whiteSpace=wrap;html=1;fillColor=#fff2cc;strokeColor=#d6b656;" parent="1" vertex="1">
          <mxGeometry x="645" y="299" width="40" height="40" as="geometry" />
        </mxCell>
        <mxCell id="44AiBCDxBOzTBdy34bFM-652" value="" style="rounded=0;whiteSpace=wrap;html=1;fillColor=#fff2cc;strokeColor=#d6b656;" parent="1" vertex="1">
          <mxGeometry x="525" y="339" width="40" height="40" as="geometry" />
        </mxCell>
        <mxCell id="44AiBCDxBOzTBdy34bFM-653" value="" style="rounded=0;whiteSpace=wrap;html=1;fillColor=#fff2cc;strokeColor=#d6b656;" parent="1" vertex="1">
          <mxGeometry x="565" y="339" width="40" height="40" as="geometry" />
        </mxCell>
        <mxCell id="44AiBCDxBOzTBdy34bFM-654" value="" style="rounded=0;whiteSpace=wrap;html=1;fillColor=#fff2cc;strokeColor=#d6b656;" parent="1" vertex="1">
          <mxGeometry x="605" y="339" width="40" height="40" as="geometry" />
        </mxCell>
        <mxCell id="44AiBCDxBOzTBdy34bFM-655" value="" style="rounded=0;whiteSpace=wrap;html=1;fillColor=#fff2cc;strokeColor=#d6b656;" parent="1" vertex="1">
          <mxGeometry x="645" y="339" width="40" height="40" as="geometry" />
        </mxCell>
        <mxCell id="44AiBCDxBOzTBdy34bFM-682" value="" style="rounded=0;whiteSpace=wrap;html=1;fillColor=#f8cecc;strokeColor=#b85450;" parent="1" vertex="1">
          <mxGeometry x="535" y="229" width="40" height="40" as="geometry" />
        </mxCell>
        <mxCell id="44AiBCDxBOzTBdy34bFM-683" value="" style="rounded=0;whiteSpace=wrap;html=1;fillColor=#f8cecc;strokeColor=#b85450;" parent="1" vertex="1">
          <mxGeometry x="575" y="229" width="40" height="40" as="geometry" />
        </mxCell>
        <mxCell id="44AiBCDxBOzTBdy34bFM-684" value="" style="rounded=0;whiteSpace=wrap;html=1;fillColor=#f8cecc;strokeColor=#b85450;" parent="1" vertex="1">
          <mxGeometry x="615" y="229" width="40" height="40" as="geometry" />
        </mxCell>
        <mxCell id="44AiBCDxBOzTBdy34bFM-685" value="" style="rounded=0;whiteSpace=wrap;html=1;fillColor=#f8cecc;strokeColor=#b85450;" parent="1" vertex="1">
          <mxGeometry x="655" y="229" width="40" height="40" as="geometry" />
        </mxCell>
        <mxCell id="44AiBCDxBOzTBdy34bFM-688" value="" style="rounded=0;whiteSpace=wrap;html=1;fillColor=#f8cecc;strokeColor=#b85450;" parent="1" vertex="1">
          <mxGeometry x="535" y="269" width="40" height="40" as="geometry" />
        </mxCell>
        <mxCell id="44AiBCDxBOzTBdy34bFM-689" value="" style="rounded=0;whiteSpace=wrap;html=1;fillColor=#f8cecc;strokeColor=#b85450;" parent="1" vertex="1">
          <mxGeometry x="575" y="269" width="40" height="40" as="geometry" />
        </mxCell>
        <mxCell id="44AiBCDxBOzTBdy34bFM-690" value="" style="rounded=0;whiteSpace=wrap;html=1;fillColor=#f8cecc;strokeColor=#b85450;" parent="1" vertex="1">
          <mxGeometry x="615" y="269" width="40" height="40" as="geometry" />
        </mxCell>
        <mxCell id="44AiBCDxBOzTBdy34bFM-691" value="" style="rounded=0;whiteSpace=wrap;html=1;fillColor=#f8cecc;strokeColor=#b85450;" parent="1" vertex="1">
          <mxGeometry x="655" y="269" width="40" height="40" as="geometry" />
        </mxCell>
        <mxCell id="44AiBCDxBOzTBdy34bFM-694" value="" style="rounded=0;whiteSpace=wrap;html=1;fillColor=#f8cecc;strokeColor=#b85450;" parent="1" vertex="1">
          <mxGeometry x="535" y="309" width="40" height="40" as="geometry" />
        </mxCell>
        <mxCell id="44AiBCDxBOzTBdy34bFM-695" value="" style="rounded=0;whiteSpace=wrap;html=1;fillColor=#f8cecc;strokeColor=#b85450;" parent="1" vertex="1">
          <mxGeometry x="575" y="309" width="40" height="40" as="geometry" />
        </mxCell>
        <mxCell id="44AiBCDxBOzTBdy34bFM-696" value="" style="rounded=0;whiteSpace=wrap;html=1;fillColor=#f8cecc;strokeColor=#b85450;" parent="1" vertex="1">
          <mxGeometry x="615" y="309" width="40" height="40" as="geometry" />
        </mxCell>
        <mxCell id="44AiBCDxBOzTBdy34bFM-697" value="" style="rounded=0;whiteSpace=wrap;html=1;fillColor=#f8cecc;strokeColor=#b85450;" parent="1" vertex="1">
          <mxGeometry x="655" y="309" width="40" height="40" as="geometry" />
        </mxCell>
        <mxCell id="44AiBCDxBOzTBdy34bFM-700" value="" style="rounded=0;whiteSpace=wrap;html=1;fillColor=#f8cecc;strokeColor=#b85450;" parent="1" vertex="1">
          <mxGeometry x="535" y="349" width="40" height="40" as="geometry" />
        </mxCell>
        <mxCell id="44AiBCDxBOzTBdy34bFM-701" value="" style="rounded=0;whiteSpace=wrap;html=1;fillColor=#f8cecc;strokeColor=#b85450;" parent="1" vertex="1">
          <mxGeometry x="575" y="349" width="40" height="40" as="geometry" />
        </mxCell>
        <mxCell id="44AiBCDxBOzTBdy34bFM-702" value="" style="rounded=0;whiteSpace=wrap;html=1;fillColor=#f8cecc;strokeColor=#b85450;" parent="1" vertex="1">
          <mxGeometry x="615" y="349" width="40" height="40" as="geometry" />
        </mxCell>
        <mxCell id="44AiBCDxBOzTBdy34bFM-703" value="" style="rounded=0;whiteSpace=wrap;html=1;fillColor=#f8cecc;strokeColor=#b85450;" parent="1" vertex="1">
          <mxGeometry x="655" y="349" width="40" height="40" as="geometry" />
        </mxCell>
        <mxCell id="44AiBCDxBOzTBdy34bFM-730" value="" style="rounded=0;whiteSpace=wrap;html=1;fillColor=#e1d5e7;strokeColor=#9673a6;" parent="1" vertex="1">
          <mxGeometry x="545" y="239" width="40" height="40" as="geometry" />
        </mxCell>
        <mxCell id="44AiBCDxBOzTBdy34bFM-731" value="" style="rounded=0;whiteSpace=wrap;html=1;fillColor=#e1d5e7;strokeColor=#9673a6;" parent="1" vertex="1">
          <mxGeometry x="585" y="239" width="40" height="40" as="geometry" />
        </mxCell>
        <mxCell id="44AiBCDxBOzTBdy34bFM-732" value="" style="rounded=0;whiteSpace=wrap;html=1;fillColor=#e1d5e7;strokeColor=#9673a6;" parent="1" vertex="1">
          <mxGeometry x="625" y="239" width="40" height="40" as="geometry" />
        </mxCell>
        <mxCell id="44AiBCDxBOzTBdy34bFM-733" value="" style="rounded=0;whiteSpace=wrap;html=1;fillColor=#e1d5e7;strokeColor=#9673a6;" parent="1" vertex="1">
          <mxGeometry x="665" y="239" width="40" height="40" as="geometry" />
        </mxCell>
        <mxCell id="44AiBCDxBOzTBdy34bFM-736" value="" style="rounded=0;whiteSpace=wrap;html=1;fillColor=#e1d5e7;strokeColor=#9673a6;" parent="1" vertex="1">
          <mxGeometry x="545" y="279" width="40" height="40" as="geometry" />
        </mxCell>
        <mxCell id="44AiBCDxBOzTBdy34bFM-737" value="" style="rounded=0;whiteSpace=wrap;html=1;fillColor=#e1d5e7;strokeColor=#9673a6;" parent="1" vertex="1">
          <mxGeometry x="585" y="279" width="40" height="40" as="geometry" />
        </mxCell>
        <mxCell id="44AiBCDxBOzTBdy34bFM-738" value="" style="rounded=0;whiteSpace=wrap;html=1;fillColor=#e1d5e7;strokeColor=#9673a6;" parent="1" vertex="1">
          <mxGeometry x="625" y="279" width="40" height="40" as="geometry" />
        </mxCell>
        <mxCell id="sIM_7fNKrBLGrNyowHgk-9" style="edgeStyle=orthogonalEdgeStyle;rounded=0;orthogonalLoop=1;jettySize=auto;html=1;entryX=0;entryY=0.5;entryDx=0;entryDy=0;" edge="1" parent="1" source="44AiBCDxBOzTBdy34bFM-739" target="ehlFxMS1mAo0d8vLHFDj-33">
          <mxGeometry relative="1" as="geometry">
            <Array as="points">
              <mxPoint x="720" y="305" />
              <mxPoint x="720" y="305" />
            </Array>
          </mxGeometry>
        </mxCell>
        <mxCell id="44AiBCDxBOzTBdy34bFM-739" value="" style="rounded=0;whiteSpace=wrap;html=1;fillColor=#e1d5e7;strokeColor=#9673a6;" parent="1" vertex="1">
          <mxGeometry x="665" y="279" width="40" height="40" as="geometry" />
        </mxCell>
        <mxCell id="44AiBCDxBOzTBdy34bFM-742" value="" style="rounded=0;whiteSpace=wrap;html=1;fillColor=#e1d5e7;strokeColor=#9673a6;" parent="1" vertex="1">
          <mxGeometry x="545" y="319" width="40" height="40" as="geometry" />
        </mxCell>
        <mxCell id="44AiBCDxBOzTBdy34bFM-743" value="" style="rounded=0;whiteSpace=wrap;html=1;fillColor=#e1d5e7;strokeColor=#9673a6;" parent="1" vertex="1">
          <mxGeometry x="585" y="319" width="40" height="40" as="geometry" />
        </mxCell>
        <mxCell id="44AiBCDxBOzTBdy34bFM-744" value="" style="rounded=0;whiteSpace=wrap;html=1;fillColor=#e1d5e7;strokeColor=#9673a6;" parent="1" vertex="1">
          <mxGeometry x="625" y="319" width="40" height="40" as="geometry" />
        </mxCell>
        <mxCell id="44AiBCDxBOzTBdy34bFM-745" value="" style="rounded=0;whiteSpace=wrap;html=1;fillColor=#e1d5e7;strokeColor=#9673a6;" parent="1" vertex="1">
          <mxGeometry x="665" y="319" width="40" height="40" as="geometry" />
        </mxCell>
        <mxCell id="44AiBCDxBOzTBdy34bFM-748" value="" style="rounded=0;whiteSpace=wrap;html=1;fillColor=#e1d5e7;strokeColor=#9673a6;" parent="1" vertex="1">
          <mxGeometry x="545" y="359" width="40" height="40" as="geometry" />
        </mxCell>
        <mxCell id="44AiBCDxBOzTBdy34bFM-749" value="" style="rounded=0;whiteSpace=wrap;html=1;fillColor=#e1d5e7;strokeColor=#9673a6;" parent="1" vertex="1">
          <mxGeometry x="585" y="359" width="40" height="40" as="geometry" />
        </mxCell>
        <mxCell id="44AiBCDxBOzTBdy34bFM-750" value="" style="rounded=0;whiteSpace=wrap;html=1;fillColor=#e1d5e7;strokeColor=#9673a6;" parent="1" vertex="1">
          <mxGeometry x="625" y="359" width="40" height="40" as="geometry" />
        </mxCell>
        <mxCell id="44AiBCDxBOzTBdy34bFM-751" value="" style="rounded=0;whiteSpace=wrap;html=1;fillColor=#e1d5e7;strokeColor=#9673a6;" parent="1" vertex="1">
          <mxGeometry x="665" y="359" width="40" height="40" as="geometry" />
        </mxCell>
        <mxCell id="ehlFxMS1mAo0d8vLHFDj-1" value="&lt;div&gt;CNN layers&lt;/div&gt;" style="text;html=1;strokeColor=none;fillColor=none;align=center;verticalAlign=middle;whiteSpace=wrap;rounded=0;" parent="1" vertex="1">
          <mxGeometry x="480" y="430" width="250" height="20" as="geometry" />
        </mxCell>
        <mxCell id="ehlFxMS1mAo0d8vLHFDj-52" style="rounded=1;jumpSize=20;orthogonalLoop=1;jettySize=auto;html=1;entryX=0;entryY=0.5;entryDx=0;entryDy=0;strokeWidth=1;" parent="1" source="ehlFxMS1mAo0d8vLHFDj-30" target="ehlFxMS1mAo0d8vLHFDj-48" edge="1">
          <mxGeometry relative="1" as="geometry" />
        </mxCell>
        <mxCell id="ehlFxMS1mAo0d8vLHFDj-30" value="" style="ellipse;whiteSpace=wrap;html=1;aspect=fixed;" parent="1" vertex="1">
          <mxGeometry x="750" y="170" width="30" height="30" as="geometry" />
        </mxCell>
        <mxCell id="sIM_7fNKrBLGrNyowHgk-6" style="edgeStyle=none;rounded=0;orthogonalLoop=1;jettySize=auto;html=1;entryX=0;entryY=0.5;entryDx=0;entryDy=0;" edge="1" parent="1" source="ehlFxMS1mAo0d8vLHFDj-31" target="ehlFxMS1mAo0d8vLHFDj-46">
          <mxGeometry relative="1" as="geometry" />
        </mxCell>
        <mxCell id="ehlFxMS1mAo0d8vLHFDj-31" value="" style="ellipse;whiteSpace=wrap;html=1;aspect=fixed;" parent="1" vertex="1">
          <mxGeometry x="750" y="210" width="30" height="30" as="geometry" />
        </mxCell>
        <mxCell id="ehlFxMS1mAo0d8vLHFDj-54" style="rounded=1;jumpSize=20;orthogonalLoop=1;jettySize=auto;html=1;entryX=0;entryY=0.5;entryDx=0;entryDy=0;strokeWidth=1;" parent="1" source="ehlFxMS1mAo0d8vLHFDj-32" target="ehlFxMS1mAo0d8vLHFDj-45" edge="1">
          <mxGeometry relative="1" as="geometry" />
        </mxCell>
        <mxCell id="ehlFxMS1mAo0d8vLHFDj-60" style="edgeStyle=none;rounded=1;jumpSize=20;orthogonalLoop=1;jettySize=auto;html=1;entryX=0;entryY=0.5;entryDx=0;entryDy=0;strokeWidth=1;" parent="1" source="ehlFxMS1mAo0d8vLHFDj-32" target="ehlFxMS1mAo0d8vLHFDj-50" edge="1">
          <mxGeometry relative="1" as="geometry" />
        </mxCell>
        <mxCell id="ehlFxMS1mAo0d8vLHFDj-550" style="edgeStyle=none;rounded=1;jumpSize=20;orthogonalLoop=1;jettySize=auto;html=1;entryX=0;entryY=0.5;entryDx=0;entryDy=0;strokeWidth=1;" parent="1" source="ehlFxMS1mAo0d8vLHFDj-32" target="ehlFxMS1mAo0d8vLHFDj-49" edge="1">
          <mxGeometry relative="1" as="geometry" />
        </mxCell>
        <mxCell id="ehlFxMS1mAo0d8vLHFDj-32" value="" style="ellipse;whiteSpace=wrap;html=1;aspect=fixed;" parent="1" vertex="1">
          <mxGeometry x="750" y="250" width="30" height="30" as="geometry" />
        </mxCell>
        <mxCell id="ehlFxMS1mAo0d8vLHFDj-56" style="rounded=1;jumpSize=20;orthogonalLoop=1;jettySize=auto;html=1;entryX=0;entryY=0.5;entryDx=0;entryDy=0;strokeWidth=1;" parent="1" source="ehlFxMS1mAo0d8vLHFDj-33" target="ehlFxMS1mAo0d8vLHFDj-47" edge="1">
          <mxGeometry relative="1" as="geometry" />
        </mxCell>
        <mxCell id="ehlFxMS1mAo0d8vLHFDj-33" value="" style="ellipse;whiteSpace=wrap;html=1;aspect=fixed;" parent="1" vertex="1">
          <mxGeometry x="750" y="290" width="30" height="30" as="geometry" />
        </mxCell>
        <mxCell id="ehlFxMS1mAo0d8vLHFDj-55" style="rounded=1;jumpSize=20;orthogonalLoop=1;jettySize=auto;html=1;entryX=0;entryY=0.5;entryDx=0;entryDy=0;strokeWidth=1;" parent="1" source="ehlFxMS1mAo0d8vLHFDj-34" target="ehlFxMS1mAo0d8vLHFDj-46" edge="1">
          <mxGeometry relative="1" as="geometry" />
        </mxCell>
        <mxCell id="ehlFxMS1mAo0d8vLHFDj-59" style="edgeStyle=none;rounded=1;jumpSize=20;orthogonalLoop=1;jettySize=auto;html=1;entryX=0;entryY=0.5;entryDx=0;entryDy=0;strokeWidth=1;" parent="1" source="ehlFxMS1mAo0d8vLHFDj-34" target="ehlFxMS1mAo0d8vLHFDj-51" edge="1">
          <mxGeometry relative="1" as="geometry" />
        </mxCell>
        <mxCell id="ehlFxMS1mAo0d8vLHFDj-61" style="edgeStyle=none;rounded=1;jumpSize=20;orthogonalLoop=1;jettySize=auto;html=1;entryX=0;entryY=0.5;entryDx=0;entryDy=0;strokeWidth=1;" parent="1" source="ehlFxMS1mAo0d8vLHFDj-34" target="ehlFxMS1mAo0d8vLHFDj-50" edge="1">
          <mxGeometry relative="1" as="geometry" />
        </mxCell>
        <mxCell id="ehlFxMS1mAo0d8vLHFDj-34" value="" style="ellipse;whiteSpace=wrap;html=1;aspect=fixed;" parent="1" vertex="1">
          <mxGeometry x="750" y="330" width="30" height="30" as="geometry" />
        </mxCell>
        <mxCell id="ehlFxMS1mAo0d8vLHFDj-57" style="edgeStyle=none;rounded=1;jumpSize=20;orthogonalLoop=1;jettySize=auto;html=1;entryX=0;entryY=0.5;entryDx=0;entryDy=0;strokeWidth=1;" parent="1" source="ehlFxMS1mAo0d8vLHFDj-35" target="ehlFxMS1mAo0d8vLHFDj-46" edge="1">
          <mxGeometry relative="1" as="geometry" />
        </mxCell>
        <mxCell id="ehlFxMS1mAo0d8vLHFDj-35" value="" style="ellipse;whiteSpace=wrap;html=1;aspect=fixed;" parent="1" vertex="1">
          <mxGeometry x="750" y="370" width="30" height="30" as="geometry" />
        </mxCell>
        <mxCell id="ehlFxMS1mAo0d8vLHFDj-58" style="edgeStyle=none;rounded=1;jumpSize=20;orthogonalLoop=1;jettySize=auto;html=1;entryX=0;entryY=0.5;entryDx=0;entryDy=0;strokeWidth=1;" parent="1" source="ehlFxMS1mAo0d8vLHFDj-36" target="ehlFxMS1mAo0d8vLHFDj-50" edge="1">
          <mxGeometry relative="1" as="geometry" />
        </mxCell>
        <mxCell id="ehlFxMS1mAo0d8vLHFDj-36" value="" style="ellipse;whiteSpace=wrap;html=1;aspect=fixed;" parent="1" vertex="1">
          <mxGeometry x="750" y="410" width="30" height="30" as="geometry" />
        </mxCell>
        <mxCell id="ehlFxMS1mAo0d8vLHFDj-545" style="edgeStyle=none;rounded=1;jumpSize=20;orthogonalLoop=1;jettySize=auto;html=1;entryX=0;entryY=0.5;entryDx=0;entryDy=0;strokeWidth=1;" parent="1" source="ehlFxMS1mAo0d8vLHFDj-45" target="ehlFxMS1mAo0d8vLHFDj-534" edge="1">
          <mxGeometry relative="1" as="geometry" />
        </mxCell>
        <mxCell id="ehlFxMS1mAo0d8vLHFDj-45" value="" style="ellipse;whiteSpace=wrap;html=1;aspect=fixed;" parent="1" vertex="1">
          <mxGeometry x="830" y="170" width="30" height="30" as="geometry" />
        </mxCell>
        <mxCell id="ehlFxMS1mAo0d8vLHFDj-547" style="edgeStyle=none;rounded=1;jumpSize=20;orthogonalLoop=1;jettySize=auto;html=1;entryX=0;entryY=0.5;entryDx=0;entryDy=0;strokeWidth=1;" parent="1" source="ehlFxMS1mAo0d8vLHFDj-46" target="ehlFxMS1mAo0d8vLHFDj-536" edge="1">
          <mxGeometry relative="1" as="geometry" />
        </mxCell>
        <mxCell id="ehlFxMS1mAo0d8vLHFDj-46" value="" style="ellipse;whiteSpace=wrap;html=1;aspect=fixed;" parent="1" vertex="1">
          <mxGeometry x="830" y="210" width="30" height="30" as="geometry" />
        </mxCell>
        <mxCell id="ehlFxMS1mAo0d8vLHFDj-47" value="" style="ellipse;whiteSpace=wrap;html=1;aspect=fixed;" parent="1" vertex="1">
          <mxGeometry x="830" y="250" width="30" height="30" as="geometry" />
        </mxCell>
        <mxCell id="ehlFxMS1mAo0d8vLHFDj-546" style="edgeStyle=none;rounded=1;jumpSize=20;orthogonalLoop=1;jettySize=auto;html=1;entryX=0;entryY=0.5;entryDx=0;entryDy=0;strokeWidth=1;" parent="1" source="ehlFxMS1mAo0d8vLHFDj-48" target="ehlFxMS1mAo0d8vLHFDj-531" edge="1">
          <mxGeometry relative="1" as="geometry" />
        </mxCell>
        <mxCell id="ehlFxMS1mAo0d8vLHFDj-548" style="edgeStyle=none;rounded=1;jumpSize=20;orthogonalLoop=1;jettySize=auto;html=1;entryX=0;entryY=0.5;entryDx=0;entryDy=0;strokeWidth=1;" parent="1" source="ehlFxMS1mAo0d8vLHFDj-48" target="ehlFxMS1mAo0d8vLHFDj-535" edge="1">
          <mxGeometry relative="1" as="geometry" />
        </mxCell>
        <mxCell id="ehlFxMS1mAo0d8vLHFDj-555" style="edgeStyle=none;rounded=1;jumpSize=20;orthogonalLoop=1;jettySize=auto;html=1;entryX=0;entryY=0.5;entryDx=0;entryDy=0;strokeWidth=1;" parent="1" source="ehlFxMS1mAo0d8vLHFDj-48" target="ehlFxMS1mAo0d8vLHFDj-532" edge="1">
          <mxGeometry relative="1" as="geometry" />
        </mxCell>
        <mxCell id="ehlFxMS1mAo0d8vLHFDj-48" value="" style="ellipse;whiteSpace=wrap;html=1;aspect=fixed;" parent="1" vertex="1">
          <mxGeometry x="830" y="290" width="30" height="30" as="geometry" />
        </mxCell>
        <mxCell id="ehlFxMS1mAo0d8vLHFDj-549" style="edgeStyle=none;rounded=1;jumpSize=20;orthogonalLoop=1;jettySize=auto;html=1;entryX=0;entryY=0.5;entryDx=0;entryDy=0;strokeWidth=1;" parent="1" source="ehlFxMS1mAo0d8vLHFDj-49" target="ehlFxMS1mAo0d8vLHFDj-532" edge="1">
          <mxGeometry relative="1" as="geometry" />
        </mxCell>
        <mxCell id="ehlFxMS1mAo0d8vLHFDj-554" style="edgeStyle=none;rounded=1;jumpSize=20;orthogonalLoop=1;jettySize=auto;html=1;entryX=0;entryY=0.5;entryDx=0;entryDy=0;strokeWidth=1;" parent="1" source="ehlFxMS1mAo0d8vLHFDj-49" target="ehlFxMS1mAo0d8vLHFDj-536" edge="1">
          <mxGeometry relative="1" as="geometry" />
        </mxCell>
        <mxCell id="ehlFxMS1mAo0d8vLHFDj-49" value="" style="ellipse;whiteSpace=wrap;html=1;aspect=fixed;" parent="1" vertex="1">
          <mxGeometry x="830" y="330" width="30" height="30" as="geometry" />
        </mxCell>
        <mxCell id="ehlFxMS1mAo0d8vLHFDj-551" style="edgeStyle=none;rounded=1;jumpSize=20;orthogonalLoop=1;jettySize=auto;html=1;entryX=0;entryY=0.5;entryDx=0;entryDy=0;strokeWidth=1;" parent="1" source="ehlFxMS1mAo0d8vLHFDj-50" target="ehlFxMS1mAo0d8vLHFDj-533" edge="1">
          <mxGeometry relative="1" as="geometry" />
        </mxCell>
        <mxCell id="ehlFxMS1mAo0d8vLHFDj-553" style="edgeStyle=none;rounded=1;jumpSize=20;orthogonalLoop=1;jettySize=auto;html=1;entryX=0;entryY=0.5;entryDx=0;entryDy=0;strokeWidth=1;" parent="1" source="ehlFxMS1mAo0d8vLHFDj-50" target="ehlFxMS1mAo0d8vLHFDj-537" edge="1">
          <mxGeometry relative="1" as="geometry" />
        </mxCell>
        <mxCell id="ehlFxMS1mAo0d8vLHFDj-50" value="" style="ellipse;whiteSpace=wrap;html=1;aspect=fixed;" parent="1" vertex="1">
          <mxGeometry x="830" y="370" width="30" height="30" as="geometry" />
        </mxCell>
        <mxCell id="ehlFxMS1mAo0d8vLHFDj-552" style="edgeStyle=none;rounded=1;jumpSize=20;orthogonalLoop=1;jettySize=auto;html=1;entryX=0;entryY=0.5;entryDx=0;entryDy=0;strokeWidth=1;" parent="1" source="ehlFxMS1mAo0d8vLHFDj-51" target="ehlFxMS1mAo0d8vLHFDj-535" edge="1">
          <mxGeometry relative="1" as="geometry" />
        </mxCell>
        <mxCell id="ehlFxMS1mAo0d8vLHFDj-51" value="" style="ellipse;whiteSpace=wrap;html=1;aspect=fixed;" parent="1" vertex="1">
          <mxGeometry x="830" y="410" width="30" height="30" as="geometry" />
        </mxCell>
        <mxCell id="ehlFxMS1mAo0d8vLHFDj-62" value="Dense layers" style="text;html=1;strokeColor=none;fillColor=none;align=center;verticalAlign=middle;whiteSpace=wrap;rounded=0;" parent="1" vertex="1">
          <mxGeometry x="800" y="455" width="250" height="20" as="geometry" />
        </mxCell>
        <mxCell id="ehlFxMS1mAo0d8vLHFDj-530" value="Flatten" style="text;html=1;strokeColor=none;fillColor=none;align=center;verticalAlign=middle;whiteSpace=wrap;rounded=0;" parent="1" vertex="1">
          <mxGeometry x="640" y="455" width="250" height="20" as="geometry" />
        </mxCell>
        <mxCell id="ehlFxMS1mAo0d8vLHFDj-557" style="edgeStyle=none;rounded=1;jumpSize=20;orthogonalLoop=1;jettySize=auto;html=1;entryX=0;entryY=0.5;entryDx=0;entryDy=0;strokeWidth=1;" parent="1" source="ehlFxMS1mAo0d8vLHFDj-531" target="ehlFxMS1mAo0d8vLHFDj-541" edge="1">
          <mxGeometry relative="1" as="geometry" />
        </mxCell>
        <mxCell id="ehlFxMS1mAo0d8vLHFDj-564" style="edgeStyle=none;rounded=1;jumpSize=20;orthogonalLoop=1;jettySize=auto;html=1;strokeWidth=1;" parent="1" source="ehlFxMS1mAo0d8vLHFDj-531" edge="1">
          <mxGeometry relative="1" as="geometry">
            <mxPoint x="990" y="345.0000000000001" as="targetPoint" />
          </mxGeometry>
        </mxCell>
        <mxCell id="ehlFxMS1mAo0d8vLHFDj-531" value="" style="ellipse;whiteSpace=wrap;html=1;aspect=fixed;" parent="1" vertex="1">
          <mxGeometry x="910" y="170" width="30" height="30" as="geometry" />
        </mxCell>
        <mxCell id="ehlFxMS1mAo0d8vLHFDj-559" style="edgeStyle=none;rounded=1;jumpSize=20;orthogonalLoop=1;jettySize=auto;html=1;entryX=0;entryY=0.5;entryDx=0;entryDy=0;strokeWidth=1;" parent="1" source="ehlFxMS1mAo0d8vLHFDj-532" target="ehlFxMS1mAo0d8vLHFDj-543" edge="1">
          <mxGeometry relative="1" as="geometry" />
        </mxCell>
        <mxCell id="ehlFxMS1mAo0d8vLHFDj-532" value="" style="ellipse;whiteSpace=wrap;html=1;aspect=fixed;" parent="1" vertex="1">
          <mxGeometry x="910" y="210" width="30" height="30" as="geometry" />
        </mxCell>
        <mxCell id="ehlFxMS1mAo0d8vLHFDj-563" style="edgeStyle=none;rounded=1;jumpSize=20;orthogonalLoop=1;jettySize=auto;html=1;entryX=0;entryY=0.5;entryDx=0;entryDy=0;strokeWidth=1;" parent="1" source="ehlFxMS1mAo0d8vLHFDj-533" target="ehlFxMS1mAo0d8vLHFDj-542" edge="1">
          <mxGeometry relative="1" as="geometry" />
        </mxCell>
        <mxCell id="ehlFxMS1mAo0d8vLHFDj-533" value="" style="ellipse;whiteSpace=wrap;html=1;aspect=fixed;" parent="1" vertex="1">
          <mxGeometry x="910" y="250" width="30" height="30" as="geometry" />
        </mxCell>
        <mxCell id="ehlFxMS1mAo0d8vLHFDj-558" style="edgeStyle=none;rounded=1;jumpSize=20;orthogonalLoop=1;jettySize=auto;html=1;entryX=0;entryY=0.5;entryDx=0;entryDy=0;strokeWidth=1;" parent="1" source="ehlFxMS1mAo0d8vLHFDj-534" target="ehlFxMS1mAo0d8vLHFDj-539" edge="1">
          <mxGeometry relative="1" as="geometry" />
        </mxCell>
        <mxCell id="ehlFxMS1mAo0d8vLHFDj-534" value="" style="ellipse;whiteSpace=wrap;html=1;aspect=fixed;" parent="1" vertex="1">
          <mxGeometry x="910" y="290" width="30" height="30" as="geometry" />
        </mxCell>
        <mxCell id="ehlFxMS1mAo0d8vLHFDj-561" style="edgeStyle=none;rounded=1;jumpSize=20;orthogonalLoop=1;jettySize=auto;html=1;entryX=0;entryY=0.5;entryDx=0;entryDy=0;strokeWidth=1;" parent="1" source="ehlFxMS1mAo0d8vLHFDj-535" target="ehlFxMS1mAo0d8vLHFDj-544" edge="1">
          <mxGeometry relative="1" as="geometry" />
        </mxCell>
        <mxCell id="ehlFxMS1mAo0d8vLHFDj-535" value="" style="ellipse;whiteSpace=wrap;html=1;aspect=fixed;" parent="1" vertex="1">
          <mxGeometry x="910" y="330" width="30" height="30" as="geometry" />
        </mxCell>
        <mxCell id="ehlFxMS1mAo0d8vLHFDj-560" style="edgeStyle=none;rounded=1;jumpSize=20;orthogonalLoop=1;jettySize=auto;html=1;entryX=0;entryY=0.5;entryDx=0;entryDy=0;strokeWidth=1;" parent="1" source="ehlFxMS1mAo0d8vLHFDj-536" target="ehlFxMS1mAo0d8vLHFDj-540" edge="1">
          <mxGeometry relative="1" as="geometry" />
        </mxCell>
        <mxCell id="ehlFxMS1mAo0d8vLHFDj-565" style="edgeStyle=none;rounded=1;jumpSize=20;orthogonalLoop=1;jettySize=auto;html=1;entryX=0;entryY=0.5;entryDx=0;entryDy=0;strokeWidth=1;" parent="1" source="ehlFxMS1mAo0d8vLHFDj-536" target="ehlFxMS1mAo0d8vLHFDj-543" edge="1">
          <mxGeometry relative="1" as="geometry" />
        </mxCell>
        <mxCell id="ehlFxMS1mAo0d8vLHFDj-536" value="" style="ellipse;whiteSpace=wrap;html=1;aspect=fixed;" parent="1" vertex="1">
          <mxGeometry x="910" y="370" width="30" height="30" as="geometry" />
        </mxCell>
        <mxCell id="ehlFxMS1mAo0d8vLHFDj-562" style="edgeStyle=none;rounded=1;jumpSize=20;orthogonalLoop=1;jettySize=auto;html=1;entryX=0;entryY=0.5;entryDx=0;entryDy=0;strokeWidth=1;" parent="1" source="ehlFxMS1mAo0d8vLHFDj-537" target="ehlFxMS1mAo0d8vLHFDj-538" edge="1">
          <mxGeometry relative="1" as="geometry" />
        </mxCell>
        <mxCell id="ehlFxMS1mAo0d8vLHFDj-537" value="" style="ellipse;whiteSpace=wrap;html=1;aspect=fixed;" parent="1" vertex="1">
          <mxGeometry x="910" y="410" width="30" height="30" as="geometry" />
        </mxCell>
        <mxCell id="ehlFxMS1mAo0d8vLHFDj-569" style="edgeStyle=none;rounded=1;jumpSize=20;orthogonalLoop=1;jettySize=auto;html=1;entryX=0;entryY=0.5;entryDx=0;entryDy=0;strokeWidth=1;" parent="1" source="ehlFxMS1mAo0d8vLHFDj-538" target="ehlFxMS1mAo0d8vLHFDj-567" edge="1">
          <mxGeometry relative="1" as="geometry" />
        </mxCell>
        <mxCell id="ehlFxMS1mAo0d8vLHFDj-576" style="edgeStyle=none;rounded=1;jumpSize=20;orthogonalLoop=1;jettySize=auto;html=1;entryX=0;entryY=0.5;entryDx=0;entryDy=0;strokeWidth=1;" parent="1" source="ehlFxMS1mAo0d8vLHFDj-538" target="ehlFxMS1mAo0d8vLHFDj-568" edge="1">
          <mxGeometry relative="1" as="geometry" />
        </mxCell>
        <mxCell id="ehlFxMS1mAo0d8vLHFDj-538" value="" style="ellipse;whiteSpace=wrap;html=1;aspect=fixed;" parent="1" vertex="1">
          <mxGeometry x="990" y="170" width="30" height="30" as="geometry" />
        </mxCell>
        <mxCell id="ehlFxMS1mAo0d8vLHFDj-570" style="edgeStyle=none;rounded=1;jumpSize=20;orthogonalLoop=1;jettySize=auto;html=1;entryX=0;entryY=0.5;entryDx=0;entryDy=0;strokeWidth=1;" parent="1" source="ehlFxMS1mAo0d8vLHFDj-539" target="ehlFxMS1mAo0d8vLHFDj-568" edge="1">
          <mxGeometry relative="1" as="geometry" />
        </mxCell>
        <mxCell id="ehlFxMS1mAo0d8vLHFDj-582" style="edgeStyle=none;rounded=1;jumpSize=20;orthogonalLoop=1;jettySize=auto;html=1;strokeWidth=1;entryX=-0.001;entryY=0.557;entryDx=0;entryDy=0;entryPerimeter=0;" parent="1" source="ehlFxMS1mAo0d8vLHFDj-539" edge="1" target="ehlFxMS1mAo0d8vLHFDj-567">
          <mxGeometry relative="1" as="geometry">
            <mxPoint x="1090" y="305.0000000000001" as="targetPoint" />
          </mxGeometry>
        </mxCell>
        <mxCell id="ehlFxMS1mAo0d8vLHFDj-539" value="" style="ellipse;whiteSpace=wrap;html=1;aspect=fixed;" parent="1" vertex="1">
          <mxGeometry x="990" y="210" width="30" height="30" as="geometry" />
        </mxCell>
        <mxCell id="ehlFxMS1mAo0d8vLHFDj-571" style="edgeStyle=none;rounded=1;jumpSize=20;orthogonalLoop=1;jettySize=auto;html=1;entryX=0;entryY=0.5;entryDx=0;entryDy=0;strokeWidth=1;" parent="1" source="ehlFxMS1mAo0d8vLHFDj-540" target="ehlFxMS1mAo0d8vLHFDj-567" edge="1">
          <mxGeometry relative="1" as="geometry" />
        </mxCell>
        <mxCell id="ehlFxMS1mAo0d8vLHFDj-578" style="edgeStyle=none;rounded=1;jumpSize=20;orthogonalLoop=1;jettySize=auto;html=1;strokeWidth=1;" parent="1" source="ehlFxMS1mAo0d8vLHFDj-540" edge="1">
          <mxGeometry relative="1" as="geometry">
            <mxPoint x="1100" y="345.0000000000001" as="targetPoint" />
          </mxGeometry>
        </mxCell>
        <mxCell id="ehlFxMS1mAo0d8vLHFDj-540" value="" style="ellipse;whiteSpace=wrap;html=1;aspect=fixed;" parent="1" vertex="1">
          <mxGeometry x="990" y="250" width="30" height="30" as="geometry" />
        </mxCell>
        <mxCell id="ehlFxMS1mAo0d8vLHFDj-572" style="edgeStyle=none;rounded=1;jumpSize=20;orthogonalLoop=1;jettySize=auto;html=1;entryX=0;entryY=0.5;entryDx=0;entryDy=0;strokeWidth=1;" parent="1" source="ehlFxMS1mAo0d8vLHFDj-541" target="ehlFxMS1mAo0d8vLHFDj-568" edge="1">
          <mxGeometry relative="1" as="geometry" />
        </mxCell>
        <mxCell id="ehlFxMS1mAo0d8vLHFDj-577" style="edgeStyle=none;rounded=1;jumpSize=20;orthogonalLoop=1;jettySize=auto;html=1;strokeWidth=1;" parent="1" source="ehlFxMS1mAo0d8vLHFDj-541" edge="1">
          <mxGeometry relative="1" as="geometry">
            <mxPoint x="1100" y="305.0000000000001" as="targetPoint" />
          </mxGeometry>
        </mxCell>
        <mxCell id="ehlFxMS1mAo0d8vLHFDj-541" value="" style="ellipse;whiteSpace=wrap;html=1;aspect=fixed;" parent="1" vertex="1">
          <mxGeometry x="990" y="290" width="30" height="30" as="geometry" />
        </mxCell>
        <mxCell id="ehlFxMS1mAo0d8vLHFDj-573" style="edgeStyle=none;rounded=1;jumpSize=20;orthogonalLoop=1;jettySize=auto;html=1;entryX=0;entryY=0.5;entryDx=0;entryDy=0;strokeWidth=1;" parent="1" source="ehlFxMS1mAo0d8vLHFDj-542" target="ehlFxMS1mAo0d8vLHFDj-567" edge="1">
          <mxGeometry relative="1" as="geometry" />
        </mxCell>
        <mxCell id="ehlFxMS1mAo0d8vLHFDj-581" style="edgeStyle=none;rounded=1;jumpSize=20;orthogonalLoop=1;jettySize=auto;html=1;strokeWidth=1;entryX=0;entryY=0.5;entryDx=0;entryDy=0;" parent="1" source="ehlFxMS1mAo0d8vLHFDj-542" edge="1" target="ehlFxMS1mAo0d8vLHFDj-568">
          <mxGeometry relative="1" as="geometry">
            <mxPoint x="1090" y="345.0000000000001" as="targetPoint" />
          </mxGeometry>
        </mxCell>
        <mxCell id="ehlFxMS1mAo0d8vLHFDj-542" value="" style="ellipse;whiteSpace=wrap;html=1;aspect=fixed;" parent="1" vertex="1">
          <mxGeometry x="990" y="330" width="30" height="30" as="geometry" />
        </mxCell>
        <mxCell id="ehlFxMS1mAo0d8vLHFDj-574" style="edgeStyle=none;rounded=1;jumpSize=20;orthogonalLoop=1;jettySize=auto;html=1;strokeWidth=1;" parent="1" source="ehlFxMS1mAo0d8vLHFDj-543" edge="1">
          <mxGeometry relative="1" as="geometry">
            <mxPoint x="1100" y="345.0000000000001" as="targetPoint" />
          </mxGeometry>
        </mxCell>
        <mxCell id="ehlFxMS1mAo0d8vLHFDj-579" style="edgeStyle=none;rounded=1;jumpSize=20;orthogonalLoop=1;jettySize=auto;html=1;strokeWidth=1;entryX=0;entryY=0.5;entryDx=0;entryDy=0;" parent="1" source="ehlFxMS1mAo0d8vLHFDj-543" edge="1" target="ehlFxMS1mAo0d8vLHFDj-567">
          <mxGeometry relative="1" as="geometry">
            <mxPoint x="1090" y="305.0000000000001" as="targetPoint" />
          </mxGeometry>
        </mxCell>
        <mxCell id="ehlFxMS1mAo0d8vLHFDj-543" value="" style="ellipse;whiteSpace=wrap;html=1;aspect=fixed;" parent="1" vertex="1">
          <mxGeometry x="990" y="370" width="30" height="30" as="geometry" />
        </mxCell>
        <mxCell id="ehlFxMS1mAo0d8vLHFDj-575" style="edgeStyle=none;rounded=1;jumpSize=20;orthogonalLoop=1;jettySize=auto;html=1;entryX=0;entryY=0.5;entryDx=0;entryDy=0;strokeWidth=1;" parent="1" source="ehlFxMS1mAo0d8vLHFDj-544" target="ehlFxMS1mAo0d8vLHFDj-567" edge="1">
          <mxGeometry relative="1" as="geometry" />
        </mxCell>
        <mxCell id="ehlFxMS1mAo0d8vLHFDj-580" style="edgeStyle=none;rounded=1;jumpSize=20;orthogonalLoop=1;jettySize=auto;html=1;strokeWidth=1;entryX=0;entryY=0.5;entryDx=0;entryDy=0;" parent="1" source="ehlFxMS1mAo0d8vLHFDj-544" edge="1" target="ehlFxMS1mAo0d8vLHFDj-568">
          <mxGeometry relative="1" as="geometry">
            <mxPoint x="1090" y="345.0000000000001" as="targetPoint" />
          </mxGeometry>
        </mxCell>
        <mxCell id="ehlFxMS1mAo0d8vLHFDj-544" value="" style="ellipse;whiteSpace=wrap;html=1;aspect=fixed;" parent="1" vertex="1">
          <mxGeometry x="990" y="410" width="30" height="30" as="geometry" />
        </mxCell>
        <mxCell id="ehlFxMS1mAo0d8vLHFDj-566" value="&lt;div&gt;Output&lt;/div&gt;" style="text;html=1;strokeColor=none;fillColor=none;align=center;verticalAlign=middle;whiteSpace=wrap;rounded=0;" parent="1" vertex="1">
          <mxGeometry x="990" y="455" width="250" height="20" as="geometry" />
        </mxCell>
        <mxCell id="ehlFxMS1mAo0d8vLHFDj-567" value="" style="ellipse;whiteSpace=wrap;html=1;aspect=fixed;fillColor=#dae8fc;strokeColor=#6c8ebf;" parent="1" vertex="1">
          <mxGeometry x="1096" y="290" width="30" height="30" as="geometry" />
        </mxCell>
        <mxCell id="ehlFxMS1mAo0d8vLHFDj-568" value="" style="ellipse;whiteSpace=wrap;html=1;aspect=fixed;fillColor=#d5e8d4;strokeColor=#82b366;" parent="1" vertex="1">
          <mxGeometry x="1096" y="330" width="30" height="30" as="geometry" />
        </mxCell>
        <mxCell id="sUNE9Ao9WOD159sY9nD--1" value="" style="rounded=0;whiteSpace=wrap;html=1;shadow=1;glass=0;sketch=1;fillColor=#f5f5f5;strokeColor=#666666;fontColor=#333333;" parent="1" vertex="1">
          <mxGeometry x="372" y="194" width="30" height="30" as="geometry" />
        </mxCell>
        <mxCell id="sUNE9Ao9WOD159sY9nD--2" value="" style="rounded=0;whiteSpace=wrap;html=1;shadow=1;glass=0;sketch=1;fillColor=#f5f5f5;strokeColor=#666666;fontColor=#333333;" parent="1" vertex="1">
          <mxGeometry x="342" y="194" width="30" height="30" as="geometry" />
        </mxCell>
        <mxCell id="sUNE9Ao9WOD159sY9nD--3" value="" style="rounded=0;whiteSpace=wrap;html=1;shadow=1;glass=0;sketch=1;fillColor=#f5f5f5;strokeColor=#666666;fontColor=#333333;" parent="1" vertex="1">
          <mxGeometry x="402" y="194" width="30" height="30" as="geometry" />
        </mxCell>
        <mxCell id="sUNE9Ao9WOD159sY9nD--7" value="" style="rounded=0;whiteSpace=wrap;html=1;shadow=1;glass=0;sketch=1;fillColor=#f5f5f5;strokeColor=#666666;fontColor=#333333;" parent="1" vertex="1">
          <mxGeometry x="372" y="224" width="30" height="30" as="geometry" />
        </mxCell>
        <mxCell id="sUNE9Ao9WOD159sY9nD--8" value="" style="rounded=0;whiteSpace=wrap;html=1;shadow=1;glass=0;sketch=1;fillColor=#f5f5f5;strokeColor=#666666;fontColor=#333333;" parent="1" vertex="1">
          <mxGeometry x="342" y="224" width="30" height="30" as="geometry" />
        </mxCell>
        <mxCell id="sUNE9Ao9WOD159sY9nD--9" value="" style="rounded=0;whiteSpace=wrap;html=1;shadow=1;glass=0;sketch=1;fillColor=#f5f5f5;strokeColor=#666666;fontColor=#333333;" parent="1" vertex="1">
          <mxGeometry x="402" y="224" width="30" height="30" as="geometry" />
        </mxCell>
        <mxCell id="sUNE9Ao9WOD159sY9nD--17" value="" style="rounded=0;whiteSpace=wrap;html=1;shadow=1;glass=0;sketch=1;fillColor=#f5f5f5;strokeColor=#666666;fontColor=#333333;" parent="1" vertex="1">
          <mxGeometry x="372" y="254" width="30" height="30" as="geometry" />
        </mxCell>
        <mxCell id="sUNE9Ao9WOD159sY9nD--18" value="" style="rounded=0;whiteSpace=wrap;html=1;shadow=1;glass=0;sketch=1;fillColor=#f5f5f5;strokeColor=#666666;fontColor=#333333;" parent="1" vertex="1">
          <mxGeometry x="342" y="254" width="30" height="30" as="geometry" />
        </mxCell>
        <mxCell id="sIM_7fNKrBLGrNyowHgk-8" style="edgeStyle=orthogonalEdgeStyle;rounded=0;orthogonalLoop=1;jettySize=auto;html=1;" edge="1" parent="1" source="sUNE9Ao9WOD159sY9nD--19">
          <mxGeometry relative="1" as="geometry">
            <mxPoint x="495" y="280" as="targetPoint" />
            <Array as="points">
              <mxPoint x="495" y="280" />
            </Array>
          </mxGeometry>
        </mxCell>
        <mxCell id="sUNE9Ao9WOD159sY9nD--19" value="" style="rounded=0;whiteSpace=wrap;html=1;shadow=1;glass=0;sketch=1;fillColor=#f5f5f5;strokeColor=#666666;fontColor=#333333;" parent="1" vertex="1">
          <mxGeometry x="402" y="254" width="30" height="30" as="geometry" />
        </mxCell>
        <mxCell id="sUNE9Ao9WOD159sY9nD--23" value="" style="rounded=0;whiteSpace=wrap;html=1;shadow=1;glass=0;sketch=1;fillColor=#f5f5f5;strokeColor=#666666;fontColor=#333333;" parent="1" vertex="1">
          <mxGeometry x="372" y="284" width="30" height="30" as="geometry" />
        </mxCell>
        <mxCell id="sUNE9Ao9WOD159sY9nD--24" value="" style="rounded=0;whiteSpace=wrap;html=1;shadow=1;glass=0;sketch=1;fillColor=#f5f5f5;strokeColor=#666666;fontColor=#333333;" parent="1" vertex="1">
          <mxGeometry x="342" y="284" width="30" height="30" as="geometry" />
        </mxCell>
        <mxCell id="sUNE9Ao9WOD159sY9nD--25" value="" style="rounded=0;whiteSpace=wrap;html=1;shadow=1;glass=0;sketch=1;fillColor=#f5f5f5;strokeColor=#666666;fontColor=#333333;" parent="1" vertex="1">
          <mxGeometry x="402" y="284" width="30" height="30" as="geometry" />
        </mxCell>
        <mxCell id="sUNE9Ao9WOD159sY9nD--33" value="" style="rounded=0;whiteSpace=wrap;html=1;shadow=1;glass=0;sketch=1;fillColor=#f5f5f5;strokeColor=#666666;fontColor=#333333;" parent="1" vertex="1">
          <mxGeometry x="372" y="314" width="30" height="30" as="geometry" />
        </mxCell>
        <mxCell id="sUNE9Ao9WOD159sY9nD--34" value="" style="rounded=0;whiteSpace=wrap;html=1;shadow=1;glass=0;sketch=1;fillColor=#f5f5f5;strokeColor=#666666;fontColor=#333333;" parent="1" vertex="1">
          <mxGeometry x="342" y="314" width="30" height="30" as="geometry" />
        </mxCell>
        <mxCell id="sUNE9Ao9WOD159sY9nD--35" value="" style="rounded=0;whiteSpace=wrap;html=1;shadow=1;glass=0;sketch=1;fillColor=#f5f5f5;strokeColor=#666666;fontColor=#333333;" parent="1" vertex="1">
          <mxGeometry x="402" y="314" width="30" height="30" as="geometry" />
        </mxCell>
        <mxCell id="sUNE9Ao9WOD159sY9nD--39" value="" style="rounded=0;whiteSpace=wrap;html=1;shadow=1;glass=0;sketch=1;fillColor=#f5f5f5;strokeColor=#666666;fontColor=#333333;" parent="1" vertex="1">
          <mxGeometry x="372" y="344" width="30" height="30" as="geometry" />
        </mxCell>
        <mxCell id="sUNE9Ao9WOD159sY9nD--40" value="" style="rounded=0;whiteSpace=wrap;html=1;shadow=1;glass=0;sketch=1;fillColor=#f5f5f5;strokeColor=#666666;fontColor=#333333;" parent="1" vertex="1">
          <mxGeometry x="342" y="344" width="30" height="30" as="geometry" />
        </mxCell>
        <mxCell id="sUNE9Ao9WOD159sY9nD--41" value="" style="rounded=0;whiteSpace=wrap;html=1;shadow=1;glass=0;sketch=1;fillColor=#f5f5f5;strokeColor=#666666;fontColor=#333333;" parent="1" vertex="1">
          <mxGeometry x="402" y="344" width="30" height="30" as="geometry" />
        </mxCell>
        <mxCell id="sUNE9Ao9WOD159sY9nD--49" value="DNA2VEC embedding" style="text;html=1;strokeColor=none;fillColor=none;align=center;verticalAlign=middle;whiteSpace=wrap;rounded=0;" parent="1" vertex="1">
          <mxGeometry x="307" y="389" width="160" height="20" as="geometry" />
        </mxCell>
        <mxCell id="sIM_7fNKrBLGrNyowHgk-11" value="" style="rounded=0;whiteSpace=wrap;html=1;fillColor=#ffe6cc;strokeColor=#d79b00;" vertex="1" parent="1">
          <mxGeometry x="80" y="194.5" width="40" height="40" as="geometry" />
        </mxCell>
        <mxCell id="sIM_7fNKrBLGrNyowHgk-12" value="&lt;div&gt;A&lt;/div&gt;" style="text;html=1;strokeColor=none;fillColor=none;align=center;verticalAlign=middle;whiteSpace=wrap;rounded=0;" vertex="1" parent="1">
          <mxGeometry x="80" y="204.5" width="40" height="20" as="geometry" />
        </mxCell>
        <mxCell id="sIM_7fNKrBLGrNyowHgk-13" value="" style="rounded=0;whiteSpace=wrap;html=1;fillColor=#dae8fc;strokeColor=#6c8ebf;" vertex="1" parent="1">
          <mxGeometry x="120" y="194.5" width="40" height="40" as="geometry" />
        </mxCell>
        <mxCell id="sIM_7fNKrBLGrNyowHgk-14" value="C" style="text;html=1;strokeColor=none;fillColor=none;align=center;verticalAlign=middle;whiteSpace=wrap;rounded=0;" vertex="1" parent="1">
          <mxGeometry x="120" y="204.5" width="40" height="20" as="geometry" />
        </mxCell>
        <mxCell id="sIM_7fNKrBLGrNyowHgk-16" value="" style="rounded=0;whiteSpace=wrap;html=1;fillColor=#f8cecc;strokeColor=#b85450;" vertex="1" parent="1">
          <mxGeometry x="160" y="329" width="40" height="40" as="geometry" />
        </mxCell>
        <mxCell id="sIM_7fNKrBLGrNyowHgk-17" value="G" style="text;html=1;strokeColor=none;fillColor=none;align=center;verticalAlign=middle;whiteSpace=wrap;rounded=0;" vertex="1" parent="1">
          <mxGeometry x="160" y="339" width="40" height="20" as="geometry" />
        </mxCell>
        <mxCell id="sIM_7fNKrBLGrNyowHgk-18" value="" style="rounded=0;whiteSpace=wrap;html=1;fillColor=#d5e8d4;strokeColor=#82b366;" vertex="1" parent="1">
          <mxGeometry x="200" y="329" width="40" height="40" as="geometry" />
        </mxCell>
        <mxCell id="sIM_7fNKrBLGrNyowHgk-19" value="T" style="text;html=1;strokeColor=none;fillColor=none;align=center;verticalAlign=middle;whiteSpace=wrap;rounded=0;" vertex="1" parent="1">
          <mxGeometry x="200" y="339" width="40" height="20" as="geometry" />
        </mxCell>
        <mxCell id="sIM_7fNKrBLGrNyowHgk-20" value="" style="rounded=0;whiteSpace=wrap;html=1;fillColor=#ffe6cc;strokeColor=#d79b00;" vertex="1" parent="1">
          <mxGeometry x="80" y="329" width="40" height="40" as="geometry" />
        </mxCell>
        <mxCell id="sIM_7fNKrBLGrNyowHgk-21" value="&lt;div&gt;A&lt;/div&gt;" style="text;html=1;strokeColor=none;fillColor=none;align=center;verticalAlign=middle;whiteSpace=wrap;rounded=0;" vertex="1" parent="1">
          <mxGeometry x="80" y="339" width="40" height="20" as="geometry" />
        </mxCell>
        <mxCell id="sIM_7fNKrBLGrNyowHgk-22" value="" style="rounded=0;whiteSpace=wrap;html=1;fillColor=#dae8fc;strokeColor=#6c8ebf;" vertex="1" parent="1">
          <mxGeometry x="120" y="329" width="40" height="40" as="geometry" />
        </mxCell>
        <mxCell id="sIM_7fNKrBLGrNyowHgk-23" value="C" style="text;html=1;strokeColor=none;fillColor=none;align=center;verticalAlign=middle;whiteSpace=wrap;rounded=0;" vertex="1" parent="1">
          <mxGeometry x="120" y="339" width="40" height="20" as="geometry" />
        </mxCell>
      </root>
    </mxGraphModel>
  </diagram>
</mxfile>
